{"title":"Minions {2015} HDCAM READNFO X264 AAC-MRG","uid":12064540,"size":339979028,"categoryP":"video","categoryS":"movies","magnet":"?xt=urn:btih:c94373788d627dd1e65739de9eaf2c18030214d0&amp;dn=Minions+%7B2015%7D+HDCAM+READNFO+X264+AAC-MRG&amp;tr=udp%3A%2F%2Ftracker.openbittorrent.com%3A80&amp;tr=udp%3A%2F%2Fopen.demonii.com%3A1337&amp;tr=udp%3A%2F%2Ftracker.coppersurfer.tk%3A6969&amp;tr=udp%3A%2F%2Fexodus.desync.com%3A6969","seeders":42,"leechers":9,"uploader":"SaM","files":9,"time":1435355565,"description":"Minions {2015} HDCAM READNFO X264 AAC-MRG\n\nNFO.ONLY 58 MINS...MISSING 30 MINS.????portuguese Audio...................\n\nFormat                      : MPEG-4\nFormat profile              : Base Media\nCodec ID                    : isom\nFile size                   : 323 MiB\nDuration                    : 58mn 16s\nOverall bit rate mode       : Variable\nOverall bit rate            : 775 Kbps\nWriting application         : Lavf55.19.104\n\nVideo\nID                          : 1\nFormat                      : AVC\nFormat/Info                 : Advanced Video Codec\nFormat profile              : High@L3\nFormat settings, CABAC      : Yes\nFormat settings, ReFrames   : 4 frames\nCodec ID                    : avc1\nCodec ID/Info               : Advanced Video Coding\nDuration                    : 58mn 16s\nBit rate                    : 676 Kbps\nWidth                       : 680 pixels\nHeight                      : 336 pixels\nDisplay aspect ratio        : 2.024\nFrame rate mode             : Constant\nFrame rate                  : 29.970 fps\nColor space                 : YUV\nChroma subsampling          : 4:2:0\nBit depth                   : 8 bits\nScan type                   : Progressive\nBits/(Pixel*Frame)          : 0.099\nStream size                 : 282 MiB (87%)\nWriting library             : x264 core \n\nAudio\nID                          : 2\nFormat                      : AAC\nFormat/Info                 : Advanced Audio Codec\nFormat profile              : LC\nCodec ID                    : 40\nDuration                    : 58mn 16s\nDuration_LastFrame          : -11ms\nBit rate mode               : Variable\nBit rate                    : 96.0 Kbps\nMaximum bit rate            : 700 Kbps\nChannel(s)                  : 2 channels\nChannel positions           : Front: L R\nSampling rate               : 48.0 KHz\nCompression mode            : Lossy\nStream size                 : 40.0 MiB (12%)\nTagged date                 : UTC 2015-06-25 13:10:40\n &lt;a href=&quot;\nhttp://extraimago.com/image/sJ0&quot; rel=&quot;nofollow&quot; target=&quot;_NEW&quot;&gt;\nhttp://extraimago.com/image/sJ0&lt;/a&gt; &lt;a href=&quot;\nhttp://extraimago.com/image/sJz&quot; rel=&quot;nofollow&quot; target=&quot;_NEW&quot;&gt;\nhttp://extraimago.com/image/sJz&lt;/a&gt; &lt;a href=&quot;\nhttp://extraimago.com/image/sJU&quot; rel=&quot;nofollow&quot; target=&quot;_NEW&quot;&gt;\nhttp://extraimago.com/image/sJU&lt;/a&gt; &lt;a href=&quot;\nhttp://extraimago.com/image/sJM&quot; rel=&quot;nofollow&quot; target=&quot;_NEW&quot;&gt;\nhttp://extraimago.com/image/sJM&lt;/a&gt; &lt;a href=&quot;\nhttp://extraimago.com/image/sJ9&quot; rel=&quot;nofollow&quot; target=&quot;_NEW&quot;&gt;\nhttp://extraimago.com/image/sJ9&lt;/a&gt;","torrent":{"xt":"urn:btih:c94373788d627dd1e65739de9eaf2c18030214d0","amp;dn":"Minions+%7B2015%7D+HDCAM+READNFO+X264+AAC-MRG","amp;tr":["udp%3A%2F%2Ftracker.openbittorrent.com%3A80","udp%3A%2F%2Fopen.demonii.com%3A1337","udp%3A%2F%2Ftracker.coppersurfer.tk%3A6969","udp%3A%2F%2Fexodus.desync.com%3A6969"],"infoHash":"c94373788d627dd1e65739de9eaf2c18030214d0","infoHashBuffer":{"type":"Buffer","data":[201,67,115,120,141,98,125,209,230,87,57,222,158,175,44,24,3,2,20,208]},"announce":[],"urlList":[]}}